<?xml version="1.0" encoding="UTF-8" standalone="no"?>
<!-- Created with Inkscape (http://www.inkscape.org/) -->

<svg
   width="1920"
   height="1200"
   viewBox="0 0 507.99998 317.5"
   version="1.1"
   id="svg358"
   sodipodi:docname="c0err.svg"
   inkscape:version="1.1.2 (0a00cf5339, 2022-02-04)"
   xmlns:inkscape="http://www.inkscape.org/namespaces/inkscape"
   xmlns:sodipodi="http://sodipodi.sourceforge.net/DTD/sodipodi-0.dtd"
   xmlns="http://www.w3.org/2000/svg"
   xmlns:svg="http://www.w3.org/2000/svg">
  <sodipodi:namedview
     id="namedview360"
     pagecolor="#000000"
     bordercolor="#666666"
     borderopacity="1.0"
     inkscape:pageshadow="2"
     inkscape:pageopacity="0"
     inkscape:pagecheckerboard="0"
     inkscape:document-units="mm"
     showgrid="false"
     units="px"
     inkscape:snap-bbox="false"
     inkscape:snap-global="true"
     inkscape:zoom="0.93642951"
     inkscape:cx="942.94337"
     inkscape:cy="615.6363"
     inkscape:window-width="2560"
     inkscape:window-height="1491"
     inkscape:window-x="0"
     inkscape:window-y="0"
     inkscape:window-maximized="1"
     inkscape:current-layer="layer1"
     fit-margin-top="0"
     fit-margin-left="0"
     fit-margin-right="0"
     fit-margin-bottom="0" />
  <defs
     id="defs355">
    <marker
       style="overflow:visible"
       id="Arrow2Lstart"
       refX="0"
       refY="0"
       orient="auto"
       inkscape:stockid="Arrow2Lstart"
       inkscape:isstock="true">
      <path
         transform="matrix(1.1,0,0,1.1,1.1,0)"
         d="M 8.7185878,4.0337352 -2.2072895,0.01601326 8.7185884,-4.0017078 c -1.7454984,2.3720609 -1.7354408,5.6174519 -6e-7,8.035443 z"
         style="fill:context-stroke;fill-rule:evenodd;stroke:context-stroke;stroke-width:0.625;stroke-linejoin:round"
         id="path1389" />
    </marker>
    <marker
       style="overflow:visible"
       id="DotL"
       refX="0"
       refY="0"
       orient="auto"
       inkscape:stockid="DotL"
       inkscape:isstock="true">
      <path
         transform="matrix(0.8,0,0,0.8,5.92,0.8)"
         style="fill:context-stroke;fill-rule:evenodd;stroke:context-stroke;stroke-width:1pt"
         d="m -2.5,-1 c 0,2.76 -2.24,5 -5,5 -2.76,0 -5,-2.24 -5,-5 0,-2.76 2.24,-5 5,-5 2.76,0 5,2.24 5,5 z"
         id="path1432" />
    </marker>
  </defs>
  <g
     inkscape:label="图层 1"
     inkscape:groupmode="layer"
     id="layer1"
     transform="translate(-52.916667,-106.36248)">
    <path
       id="rect532"
       style="fill:#cc1919;fill-opacity:0.89999998;stroke-width:0.108439"
       d="m 227.54166,304.79998 h 39.6875 v 4.23333 h -39.6875 z"
       sodipodi:nodetypes="ccccc" />
    <path
       id="rect532-3"
       style="fill:#cc1919;fill-opacity:0.40000001;stroke-width:0.108439"
       d="m 267.22916,304.79998 h 39.6875 v 4.23333 h -39.6875 z"
       sodipodi:nodetypes="ccccc" />
    <path
       id="rect532-3-9"
       style="fill:#cc1919;fill-opacity:0.69999999;stroke-width:0.108439"
       d="m 306.91666,304.79998 h 39.6875 v 4.23333 h -39.6875 z"
       sodipodi:nodetypes="ccccc" />
    <path
       id="rect532-2"
       style="fill:#cc1919;fill-opacity:0.2;stroke-width:0.108439"
       d="m 386.29166,309.03331 h -39.6875 v -4.23333 h 39.6875 z"
       sodipodi:nodetypes="ccccc" />
    <text
       xml:space="preserve"
       style="font-style:normal;font-variant:normal;font-weight:normal;font-stretch:normal;font-size:45.1556px;line-height:1.25;font-family:sans;-inkscape-font-specification:sans;fill:#bfbfbf;fill-opacity:1;stroke:none;stroke-width:0.264583"
       x="227.46339"
       y="288.34952"
       id="text3356"><tspan
         sodipodi:role="line"
         id="tspan3354"
         style="font-style:normal;font-variant:normal;font-weight:600;font-stretch:normal;font-size:45.1556px;font-family:sans;-inkscape-font-specification:'sans Semi-Bold';fill:#bfbfbf;fill-opacity:1;stroke-width:0.264583"
         x="227.46339"
         y="288.34952">⚠ ☛<tspan
   style="font-size:22.5778px"
   id="tspan34124"> </tspan> </tspan></text>
    <rect
       id="qr background"
       fill-opacity="1"
       fill="#ffffff"
       x="330.90802"
       y="255.46927"
       width="33.866665"
       height="33.866665"
       style="stroke-width:1.25432;fill:#000000;fill-opacity:1" />
    <g
       id="g48304"
       transform="matrix(1.2656248,0,0,1.2656252,-77.647217,-74.607785)">
      <path
         fill-opacity="1"
         fill="#000000"
         id="qr dark pixels"
         fill-rule="evenodd"
         d="m 342.19691,256.72359 h 1.25432 v 1.25432 h -1.25432 z m 3.76296,0 h 2.50864 v 1.25432 h -2.50864 z m 3.76296,0 h 1.25432 v 3.76295 h -1.25432 v 1.25433 h 1.25432 v 3.76296 h -1.25432 v -1.25432 h -1.25432 v 1.25432 h -1.25432 v -2.50864 h 1.25432 v -1.25432 h -1.25432 v -2.50864 h 1.25432 v -1.25432 h 1.25432 z m -6.2716,1.25432 h 2.50864 v 2.50863 h -1.25432 v -1.25431 h -1.25432 z m 7.52592,2.50863 h 2.50865 v 1.25433 h -2.50865 z m -7.52592,1.25433 h 1.25432 v 1.25432 h -1.25432 z m 2.50864,0 h 1.25432 v 1.25432 h -1.25432 z m -1.25432,1.25432 h 1.25432 v 2.50864 h 1.25432 v 2.50864 h -2.50864 v 1.25432 h -1.25432 v 1.25432 h 1.25432 v -1.25432 h 2.50864 v 1.25432 h 1.25432 v -1.25432 h -1.25432 v -1.25432 h 1.25432 v -2.50864 h 1.25432 v 2.50864 h 1.25432 v -2.50864 h 1.25432 v 1.25432 h 1.25433 v 1.25432 h -1.25433 v 1.25432 h 2.50865 v 1.25432 h -1.25432 v 1.25433 h -1.25433 v 1.25432 h 1.25433 v 1.25432 h -1.25433 v 2.50864 h -1.25432 v -2.50864 h -1.25432 v 1.25432 h -2.50864 v 1.25432 h -2.50864 v -1.25432 h 1.25432 v -1.25432 h 2.50864 v -1.25432 h -2.50864 v -1.25432 h -1.25432 v 1.25432 h -1.25432 v -1.25432 h -1.25432 v 1.25432 h -2.50864 v -1.25432 h 1.25432 v -1.25433 h -1.25432 v 1.25433 h -1.25432 v -2.50865 h 2.50864 v -1.25432 h 2.50864 v -1.25432 h 1.25432 z m 5.01728,6.2716 h 1.25432 v 3.76297 h -1.25432 z m -7.52592,-5.01728 h 1.25432 v 2.50864 h -1.25432 z m 10.03456,0 h 1.25433 v 1.25432 h -1.25433 z m -20.06913,2.50864 h 2.50864 v 1.25432 h -2.50864 z m 3.76296,0 h 2.50865 v 1.25432 h -2.50865 z m 3.76297,0 h 1.25432 v 1.25432 h -1.25432 z m 15.05185,0 h 1.25432 v 1.25432 h -1.25432 z m 7.52592,0 h 1.25433 v 1.25432 h -1.25433 z m -6.2716,1.25432 h 6.2716 v 1.25432 h -2.50864 v 1.25432 h 2.50864 v -1.25432 h 1.25433 v 3.76297 h -1.25433 v -1.25432 h -5.01728 v -1.25433 h -1.25432 z m -21.32346,1.25432 h 2.50864 v 3.76297 h -1.25432 v -2.50865 h -1.25432 z m -1.25432,1.25432 h 1.25432 v 2.50865 h -1.25432 z m 21.32346,1.25433 h 2.50864 v 1.25432 h -2.50864 z m -22.57778,1.25432 h 1.25432 v 1.25432 h 1.25432 v 1.25432 h -1.25432 v 2.50864 h -1.25432 z m 25.08642,0 h 1.25432 v 1.25432 h 2.50864 v -1.25432 h 1.25432 v 1.25432 h 1.25433 v 2.50864 h -1.25433 v -1.25432 h -1.25432 v 1.25432 h 1.25432 v 2.50864 h -1.25432 v -1.25432 h -1.25432 v -2.50864 h -1.25432 v 1.25432 h -5.01728 v -1.25432 h 3.76296 z m -21.32346,1.25432 h 2.50865 v 2.50864 h -1.25433 v 1.25432 h -1.25432 v -1.25432 h -1.25432 v -1.25432 h 1.25432 z m 3.76297,0 h 1.25432 v 1.25432 h -1.25432 z m 2.50864,0 h 2.50864 v 1.25432 h -2.50864 z m -1.25432,1.25432 h 1.25432 v 1.25432 h -1.25432 z m -1.25432,1.25432 h 1.25432 v 1.25432 h -1.25432 z m 3.76296,0 h 1.25432 v 1.25432 h 5.01728 v -1.25432 h 1.25432 v 2.50864 h -3.76296 v 1.25432 h -1.25432 v -1.25432 h -1.25432 V 281.81 h -1.25432 v -2.50864 h -1.25432 v -1.25432 h 1.25432 z m 15.05185,2.50864 h 1.25432 v 1.25432 h -1.25432 z m 3.76296,0 h 1.25433 v 1.25432 h -1.25433 z m -15.05185,1.25432 h 1.25432 V 281.81 h 1.25432 v -1.25432 h 2.50864 v 2.50864 h 1.25433 v 1.25432 h -1.25433 v 1.25432 h -1.25432 v 2.50865 h -2.50864 v -1.25433 h 1.25432 v -3.76296 h -2.50864 z m 13.79753,0 h 1.25432 V 281.81 h -1.25432 z M 342.19691,281.81 h 1.25432 v 2.50864 h -1.25432 z m 16.30617,0 h 1.25432 v 2.50864 h -1.25432 z m 3.76296,0 h 1.25433 v 6.27161 h -1.25433 v -1.25433 h -2.50864 v -2.50864 h 1.25432 v -1.25432 h 1.25432 z m -17.56049,1.25432 h 1.25432 v 2.50864 h -2.50864 v -1.25432 h 1.25432 z m 10.03457,0 h 2.50864 v 1.25432 h 1.25432 v 2.50864 h -2.50864 v -2.50864 h -1.25432 z m -7.52593,1.25432 h 1.25432 v 1.25432 h -1.25432 z m 6.27161,0 h 1.25432 v 1.25432 h -1.25432 z m -11.28889,1.25432 h 1.25432 v 1.25432 h 1.25432 v 1.25433 h -2.50864 z m 10.03456,1.25432 h 2.50865 v 1.25433 h -2.50865 z m 6.27161,0 h 1.25432 v 1.25433 h -1.25432 z"
         style="fill:#bfbfbf;fill-opacity:1;stroke-width:1.25432" />
      <path
         id="qr squares"
         d="m 332.16234,256.72359 h 8.78025 v 0 0 8.78024 0 0 h -8.78025 v 0 0 z m 1.25432,1.25432 h 6.27161 v 0 0 6.2716 0 0 h -6.27161 v 0 0 z m 1.25432,1.25432 h 3.76297 v 0 0 3.76296 0 0 h -3.76297 v 0 0 z m 20.06914,-2.50864 h 8.78025 v 0 0 8.78024 0 0 h -8.78025 v 0 0 z m 1.25432,1.25432 h 6.2716 v 0 0 6.2716 0 0 h -6.2716 v 0 0 z m 1.25432,1.25432 h 3.76296 v 0 0 3.76296 0 0 h -3.76296 v 0 0 z m -25.08642,20.06913 h 8.78025 v 0 0 8.78025 0 0 h -8.78025 v 0 0 z m 1.25432,1.25432 h 6.27161 v 0 0 6.2716 0 0 h -6.27161 v 0 0 z m 1.25432,1.25432 h 3.76297 v 0 0 3.76296 0 0 h -3.76297 v 0 0 z m 17.56049,-5.01728 h 6.27161 v 0 0 6.2716 0 0 h -6.27161 v 0 0 z m 1.25433,1.25432 h 3.76296 v 0 0 3.76296 0 0 h -3.76296 v 0 0 z m 1.25432,1.25432 h 1.25432 v 0 0 1.25432 0 0 h -1.25432 v 0 0 z"
         fill-rule="evenodd"
         fill-opacity="1"
         fill="#000000"
         style="fill:#bfbfbf;fill-opacity:1;stroke-width:1.25432" />
    </g>
  </g>
</svg>
